<svg width="1275" height="692" viewBox="0 0 1275 692" fill="none" xmlns="http://www.w3.org/2000/svg">
<path d="M868.317 43.6212C869.193 45.3933 871.382 43.3501 871.945 44.6011C872.8 46.4566 872.466 48.7292 873.884 50.5431C874.322 51.1269 873.383 51.8357 872.654 52.2527C868.526 54.6087 862.208 52.628 860.374 48.3539C859.123 45.4559 861.333 43.4961 862.313 41.2235C865.002 40.3061 866.482 42.4327 868.317 43.6212Z" fill="black"/>
<path d="M21.0207 19.9442C21.0207 15.837 21.7504 14.9404 25.0654 15.003C28.0677 15.0655 33.6344 19.2979 33.6553 21.5288C33.6553 23.7596 28.86 26.7202 24.9612 26.8662C23.0848 26.9287 21.0208 23.301 20.9999 19.9442L21.0207 19.9442Z" fill="#F9D644"/>
<path d="M3.21951e-05 415.258C3.23518e-05 411.672 1.04252 410.129 3.54442 410.004C6.92198 409.858 10.9459 413.569 10.8625 416.759C10.7999 419.699 7.98534 422.18 4.77457 422.138C1.45956 422.076 3.19891e-05 419.97 3.21951e-05 415.258Z" fill="black"/>
<path d="M1268.34 308.031C1269.99 307.926 1272.26 308.031 1272.72 309.261C1273.39 311.012 1273.34 313.034 1274.97 314.39C1271.97 314.723 1274.01 317.955 1272.49 318.872C1270.88 319.831 1269.09 319.456 1267.53 318.268C1266.57 317.538 1265.46 317.038 1264.84 315.953C1263.9 314.285 1261.52 313.326 1262.09 310.95C1262.42 309.553 1265.94 308.052 1268.32 308.031L1268.34 308.031Z" fill="#F88B9E"/>
<path d="M1106.21 508.697C1105.81 507.612 1105.4 506.528 1105 505.465C1106.36 504.318 1106.65 502.338 1108.59 501.566C1111.38 500.44 1116.05 501.024 1117.55 503.046C1118.84 504.798 1118.36 509.676 1116.68 511.657C1115.45 513.117 1113.78 513.117 1112.23 512.554C1110.55 511.928 1109 510.948 1107.4 510.114L1107.4 510.156C1106.94 509.739 1106.48 509.28 1106.19 508.717L1106.21 508.697Z" fill="#F88B9E"/>
<path d="M1136.46 124.005C1136.86 124.047 1137.3 124.005 1137.65 124.13C1139.99 125.069 1142.99 125.194 1143.53 128.425C1143.78 129.885 1139.57 134.805 1137.99 135.285C1137.8 135.347 1137.61 135.347 1137.42 135.347C1136.21 135.389 1131.06 129.03 1131 127.425C1130.92 125.36 1133.25 123.901 1136.46 124.005Z" fill="#F9D644"/>
<path d="M77.2722 684.86C76.6676 686.549 74.4785 686.445 74.6036 688.175C74.7078 689.426 74.8329 690.906 73.2275 690.865C71.4136 690.823 69.9125 692.387 68.0987 691.74C65.8469 690.948 64.4917 687.258 65.1797 684.777C66.0762 681.545 68.6824 682.004 70.955 682.045C73.2067 682.087 74.9372 683.609 77.2515 684.86L77.2722 684.86Z" fill="#F88B9E"/>
<path d="M139.514 220.063C142.328 220.251 145.977 223.232 146.477 225.755C146.623 226.547 143.663 230.3 142.683 230.217C140.264 229.987 138.033 229.091 136.094 227.61C134.197 226.151 135.281 224.358 135.573 222.628C135.969 220.272 137.47 219.771 139.534 220.084L139.514 220.063Z" fill="#F88B9E"/>
<path d="M1268.98 22.0002C1272.4 22.021 1273.15 22.9801 1273.09 27.3376C1273.09 28.7762 1268.9 32.0912 1267.27 31.9452C1265.15 31.7576 1262 27.7963 1262 25.3569C1262 23.7098 1265.59 21.9793 1268.98 22.0002Z" fill="#F88B9E"/>
<path d="M375.424 9.95244C374.069 9.55631 372.401 8.61809 372.046 6.36638C371.608 3.55174 374.36 0.174181 377.05 0.00738749C379.489 -0.138557 382.387 1.90466 382.346 3.76024C382.283 6.55403 378.989 9.82735 375.424 9.95244Z" fill="black"/>
<path d="M1231.32 647.972C1228.92 648.034 1226.5 650.224 1224.1 647.972C1223.62 646.846 1222.77 646.033 1221.77 645.366C1220.68 644.282 1220.87 643.114 1221.58 641.926C1225.31 638.673 1229 639.59 1231.23 644.302C1231.27 645.115 1231.29 645.949 1231.29 646.763C1231.29 647.159 1231.29 647.555 1231.29 647.951L1231.32 647.972Z" fill="#F9D644"/>
</svg>
